<svg id="Layer_2" data-name="Layer 2" xmlns="http://www.w3.org/2000/svg" viewBox="0 0 14.79 14.77"><defs><style>.cls-1{fill:none;stroke:#94a2fb;stroke-miterlimit:10;stroke-width:0.5px;}</style></defs><path class="cls-1" d="M14.53,8.57l-1.1,1L12,8.07,11,7l-.75-.8a.75.75,0,0,1,0-1.06.74.74,0,0,1,.5-.2.76.76,0,0,1,.56.24l.76.81,1,1.09Z" transform="translate(-4.62 -4.68)"/><path class="cls-1" d="M18.64,14a.74.74,0,0,1-1.05,0l-.68-.72-1-1.08-1.43-1.52,1.09-1h0L17,11.18l1,1.08.66.7A.75.75,0,0,1,18.64,14Z" transform="translate(-4.62 -4.68)"/><polygon class="cls-1" points="9.82 8.82 8.71 9.82 7.28 8.3 6.26 7.22 4.84 5.71 5.95 4.71 7.36 6.21 8.38 7.3 9.82 8.82"/><path class="cls-1" d="M9.54,8.3l-1.1,1L7.8,8.63a.74.74,0,0,1,0-1.05.73.73,0,0,1,.51-.21.75.75,0,0,1,.55.24Z" transform="translate(-4.62 -4.68)"/><path class="cls-1" d="M16.2,16.46a.75.75,0,0,1-1,0l-.8-.84,1.11-1,.77.82A.75.75,0,0,1,16.2,16.46Z" transform="translate(-4.62 -4.68)"/><path class="cls-1" d="M9.32,13.31l-1.1,1L6.8,12.81l-1-1.08-.52-.56a.74.74,0,0,1,0-1.05.72.72,0,0,1,.51-.2.7.7,0,0,1,.54.23l.54.58,1,1.08Z" transform="translate(-4.62 -4.68)"/><path class="cls-1" d="M13.66,19a.75.75,0,0,1-1.06,0l-.91-1-1-1.09L9.24,15.4l1.1-1,1.43,1.52,1,1.08.89.95A.74.74,0,0,1,13.66,19Z" transform="translate(-4.62 -4.68)"/><path class="cls-1" d="M6.8,12.81l-.68.62a.74.74,0,1,1-1-1.1l.66-.6Z" transform="translate(-4.62 -4.68)"/><polygon class="cls-1" points="7.39 3.39 5.95 4.71 4.84 5.71 3.28 7.13 2.26 6.05 3.82 4.63 4.92 3.62 6.37 2.31 7.39 3.39"/><path class="cls-1" d="M14.29,5.68a.76.76,0,0,1-.25.55l-.92.84L12.09,6,13,5.12a.75.75,0,0,1,1.05,0A.78.78,0,0,1,14.29,5.68Z" transform="translate(-4.62 -4.68)"/><path class="cls-1" d="M11.9,13,10.34,14.4l-1.1,1-.6.55a.75.75,0,1,1-1-1.1l.59-.54,1.1-1,1.56-1.41Z" transform="translate(-4.62 -4.68)"/><path class="cls-1" d="M16.8,8.19a.74.74,0,0,1-.24.55l-1,.91h0l-1.09,1h0L13,12l-1-1.09,1.45-1.32,1.1-1h0l1-.93a.75.75,0,0,1,1,.05A.73.73,0,0,1,16.8,8.19Z" transform="translate(-4.62 -4.68)"/><polygon class="cls-1" points="12.29 8.58 10.84 9.9 9.73 10.91 8.18 12.32 7.15 11.24 8.71 9.82 9.82 8.82 11.27 7.5 12.29 8.58"/><path class="cls-1" d="M11.69,18l-.69.63a.76.76,0,0,1-1.06-.05A.75.75,0,0,1,10,17.54l.68-.62Z" transform="translate(-4.62 -4.68)"/><path class="cls-1" d="M19.16,10.87a.76.76,0,0,1-.24.56l-.91.83-1-1.08.93-.85a.73.73,0,0,1,1,.05A.72.72,0,0,1,19.16,10.87Z" transform="translate(-4.62 -4.68)"/></svg>